<svg xmlns="http://www.w3.org/2000/svg" viewBox="0 0 66 82.5" x="0px" y="0px"><title>Artboard 2</title><g data-name="Layer 4"><path d="M22,15a7,7,0,1,0-7,7A7,7,0,0,0,22,15Zm-7,5a5,5,0,1,1,5-5A5,5,0,0,1,15,20Z"/><path d="M15,5a1,1,0,0,0,1-1V2a1,1,0,0,0-2,0V4A1,1,0,0,0,15,5Z"/><path d="M8.63,6a1,1,0,0,0,1.74-1l-1-1.73a1,1,0,0,0-1.74,1Z"/><path d="M3.24,9.37l1.73,1A1,1,0,1,0,6,8.63l-1.73-1a1,1,0,0,0-1,1.74Z"/><path d="M2,16H4a1,1,0,0,0,0-2H2a1,1,0,0,0,0,2Z"/><path d="M5,19.63l-1.73,1a1,1,0,0,0,.5,1.87,1,1,0,0,0,.5-.13l1.73-1a1,1,0,0,0-1-1.74Z"/><path d="M8,27.12a.93.93,0,0,0,.5.14,1,1,0,0,0,.87-.5l1-1.73a1,1,0,1,0-1.74-1l-1,1.73A1,1,0,0,0,8,27.12Z"/><path d="M14,26v2a1,1,0,0,0,2,0V26a1,1,0,0,0-2,0Z"/><path d="M20.63,26.76a1,1,0,0,0,.87.5.93.93,0,0,0,.5-.14,1,1,0,0,0,.37-1.36l-1-1.73a1,1,0,1,0-1.74,1Z"/><path d="M24,21.37l1.73,1a1,1,0,0,0,.5.13,1,1,0,0,0,.5-1.87l-1.73-1a1,1,0,0,0-1,1.74Z"/><path d="M25,15a1,1,0,0,0,1,1h2a1,1,0,0,0,0-2H26A1,1,0,0,0,25,15Z"/><path d="M24.53,10.5a1,1,0,0,0,.5-.13l1.73-1a1,1,0,0,0-1-1.74L24,8.63a1,1,0,0,0,.5,1.87Z"/><path d="M20,6.34A1,1,0,0,0,21.37,6l1-1.73a1,1,0,0,0-1.74-1L19.63,5A1,1,0,0,0,20,6.34Z"/><path d="M54.5,44a10.43,10.43,0,0,0-3.88.75L46,36.16l-.57-1.06L42.67,30H50a1,1,0,0,0,0-2H41a1,1,0,0,0-.86.49,1,1,0,0,0,0,1l3,5.53H23l-1.2-2H24a1,1,0,0,0,0-2H18a1,1,0,0,0,0,2h1.43L21,35.66l-5.35,9.21A10.39,10.39,0,0,0,11.5,44,10.5,10.5,0,1,0,21.88,56h7.26a4,4,0,1,0,6.22-4.21L44.77,38.1l4.07,7.57A10.48,10.48,0,1,0,54.5,44ZM22.2,37.62l8.48,14.13A4,4,0,0,0,29.14,54H22a10.49,10.49,0,0,0-4.54-8.16ZM20,54H12.69l3.73-6.42A8.48,8.48,0,0,1,20,54ZM11.5,63a8.5,8.5,0,0,1,0-17,8.37,8.37,0,0,1,3.17.62L10.09,54.5a1,1,0,0,0,0,1A1,1,0,0,0,11,56h8.91A8.51,8.51,0,0,1,11.5,63ZM33,57a2,2,0,1,1,2-2A2,2,0,0,1,33,57Zm.44-6c-.14,0-.29,0-.44,0s-.27,0-.41,0L24.16,37H43.1ZM54.5,63a8.5,8.5,0,0,1-4.71-15.57l4.33,8a1,1,0,1,0,1.76-.94l-4.31-8A8.41,8.41,0,0,1,54.5,46a8.5,8.5,0,0,1,0,17Z"/></g><text x="0" y="81" fill="#000000" font-size="5px" font-weight="bold" font-family="'Helvetica Neue', Helvetica, Arial-Unicode, Arial, Sans-serif">Created by Liu Kang</text><text x="0" y="86" fill="#000000" font-size="5px" font-weight="bold" font-family="'Helvetica Neue', Helvetica, Arial-Unicode, Arial, Sans-serif">from the Noun Project</text></svg>