<svg xmlns="http://www.w3.org/2000/svg" xmlns:xlink="http://www.w3.org/1999/xlink" version="1.1" x="0px" y="0px" viewBox="0 0 100 125" style="enable-background:new 0 0 100 100;" xml:space="preserve"><g><path d="M79.75,44H69.3659668l-2.2336426-0.4970703c-1.5585938-0.3388672-3.206543-0.3398438-4.769043,0.0009766L55.25,45.0872803   V43h6c0.5522461,0,1-0.4472656,1-1v-1.8691406l0.387207,0.1445313c0.6816406,0.2568359,1.3979492,0.3857422,2.1137695,0.3857422   c0.7148438,0,1.4291992-0.1279297,2.1083984-0.3847656l3.0048828-1.1210938   c2.3242188-0.8818359,3.8857422-3.1416016,3.8857422-5.625V26h6.1098633c0.8955078,0,1.6342773-0.6181641,1.8378906-1.5380859   c0.2119141-0.953125-0.2304688-1.8935547-1.0727539-2.2871094l-4.3764648-2.0527344   c-0.3393555-0.15625-0.6479492-0.4072266-0.9199219-0.7490234c-0.4438477-0.5517578-0.6884766-1.2773438-0.6884766-2.0429688V15v-2   c0-1.6542969-1.2470703-3-2.7802734-3H57.6401367c-1.5332031,0-2.7802734,1.3457031-2.7802734,3v2v2.3300781   c0,0.5749512-0.1375732,1.126709-0.3952637,1.6011963c-0.0553589,0.1018066-0.1246948,0.1932373-0.190918,0.2869873   c-0.0367432,0.0522461-0.0661621,0.1101074-0.1062012,0.159668c-0.2680664,0.3369141-0.5766602,0.5878906-0.9223633,0.7470703   l-4.3681641,2.0488281c-0.8442383,0.3945313-1.2866211,1.3349609-1.074707,2.2880859   C48.0058594,25.3818359,48.7446289,26,49.6401367,26H55.75v3h-44.5c-0.5522461,0-1,0.4472656-1,1v12c0,0.5527344,0.4477539,1,1,1h5   v8h-5c-0.5522461,0-1,0.4472656-1,1v12c0,0.5527344,0.4477539,1,1,1h21.5v9.7802734   c0,0.3388672,0.1713867,0.6542969,0.4555664,0.8388672s0.6420898,0.2128906,0.9521484,0.0742188L41.75,72.3046875l4,1.7854004V81   c0,0.5527344,0.4477539,1,1,1h3v3v4c0,0.5527344,0.4477539,1,1,1h28c0.5522461,0,1-0.4472656,1-1v-4v-3h3   c0.5522461,0,1-0.4472656,1-1v-2h3c1.6542969,0,3-1.3457031,3-3V54C89.75,48.4863281,85.2641602,44,79.75,44z M71.75,33.5302734   c0,1.6835938-1.0185547,3.1572266-2.5898438,3.7529297l-3.003418,1.1210938   c-0.90625,0.3417969-1.9052734,0.3427734-2.8164063-0.0009766l-1.7403564-0.6501465   c-0.0001221-0.0001221-0.0002441-0.0002441-0.0003662-0.0002441l-1.2548828-0.46875   C58.7685547,36.6875,57.75,35.2138672,57.75,33.5302734V30v-0.0354004C63.2705688,29.6699219,66.25354,27.0244141,67.204834,26   h0.5983276c0.2285156,2.2382813,1.2501831,5.2712402,3.9468384,5.880127V33.5302734z M57.75,27.9655762V26h6.3331909   C62.7546387,26.8657227,60.6826172,27.7890625,57.75,27.9655762z M71.75,29.7722168   C70.4260864,29.1176758,69.9797363,27.1970215,69.8289795,26H71.75V29.7722168z M56.8598633,13   c0-0.5419922,0.3574219-1,0.7802734-1h14.2197266c0.4228516,0,0.7802734,0.4580078,0.7802734,1v1H56.8598633V13z    M56.7189941,18.4979248c0.0213013-0.0975342,0.0529175-0.1912842,0.0688477-0.2905273   c0.0463257-0.2875977,0.0720215-0.5806885,0.0720215-0.8773193V16h15.7802734v1.3300781   c0,0.2963867,0.0255737,0.5893555,0.0718994,0.8769531c0.0162354,0.1005859,0.0482178,0.1958008,0.0698853,0.2949219   C72.8185425,18.6690674,72.8480225,18.838623,72.8999023,19H56.6000977   C56.6524048,18.8372803,56.682251,18.6663818,56.7189941,18.4979248z M49.7426758,24   c-0.0048828-0.0107422-0.0131836-0.0166016-0.0180664-0.0146484l4.3637695-2.046875   C54.5722046,21.715332,55.0112305,21.3984375,55.3988037,21h18.7030029   c0.3884888,0.3997803,0.8256226,0.7150879,1.3034668,0.9355469l4.3393555,2.0175781   C79.7495117,23.9638672,79.7504883,23.9814453,79.7495117,24H72.75h-16H49.7426758z M33.340332,52.4580078   C32.980957,52.6191406,32.75,52.9765625,32.75,53.3701172V58h-2c-0.5522461,0-1,0.4472656-1,1s0.4477539,1,1,1h2v3h-20.5V53h5   c0.5522461,0,1-0.4472656,1-1V42c0-0.5527344-0.4477539-1-1-1h-5V31h43.5v2.5302734   c0,2.4833984,1.5615234,4.7431641,3.890625,5.6259766L60.25,39.3837891V41h-6c-0.5522461,0-1,0.4472656-1,1v3.53125   l-0.4550781,0.1025391c-0.3790283,0.083252-0.7471924,0.1940918-1.1065674,0.3233643   c-0.1185303,0.0426025-0.2302856,0.0975342-0.3464355,0.1450195c-0.2365723,0.0965576-0.4711914,0.1955566-0.6971436,0.3111572   c-0.1308594,0.0670166-0.255127,0.1433105-0.3821411,0.2163086c-0.2006226,0.1154785-0.3983154,0.2340088-0.5888062,0.3642578   c-0.1269531,0.086792-0.2487183,0.1789551-0.3708496,0.2719727c-0.1782227,0.1358643-0.3511353,0.2766113-0.5185547,0.425293   c-0.1159668,0.1030273-0.229187,0.2075195-0.3397217,0.3164063c-0.1602783,0.1578369-0.3120117,0.322876-0.4602051,0.4925537   c-0.1001587,0.114624-0.2007446,0.2279053-0.295105,0.3476563c-0.1461182,0.1854248-0.2797241,0.380249-0.4112549,0.5775146   c-0.0782471,0.1173096-0.1610107,0.2305908-0.2338867,0.3518066c-0.1428833,0.237793-0.2683716,0.4865723-0.3895264,0.7385254   c-0.0443726,0.0921631-0.0968018,0.1789551-0.1381226,0.2729492c-0.0054321,0.012207-0.0126953,0.0234375-0.0180664,0.0356445   l-4.340332-1.9375c-0.2602539-0.1162109-0.5571289-0.1152344-0.8173828,0.0009766l-0.7177734,0.3212891   c0.0345459-0.0667725,0.0570068-0.121582,0.0904541-0.1872559c0.1956787-0.3842773,0.3717651-0.7492676,0.5294189-1.0957031   c0.0464478-0.1021729,0.0951538-0.206543,0.1383057-0.3054199c0.1754761-0.4018555,0.3292847-0.7823486,0.4508057-1.1311035   c0.0165405-0.0476074,0.0266724-0.0888672,0.0422363-0.1352539c0.1005249-0.3007813,0.1778564-0.5788574,0.2369385-0.8393555   c0.0178223-0.0786133,0.0351563-0.1566162,0.0491943-0.2314453C42.213623,45,42.25,44.732666,42.25,44.5   c0-3.3085938-2.6914063-6-6-6s-6,2.6914063-6,6c0,0.1994629,0.0218506,0.4199219,0.0608521,0.6567383   c0.0130005,0.0791016,0.0386353,0.170166,0.0559692,0.253418c0.0346069,0.1660156,0.0695801,0.3325195,0.12146,0.5151367   c0.031189,0.1098633,0.0744019,0.2312012,0.1118774,0.3469238c0.0559082,0.1729736,0.1117554,0.3457031,0.1815186,0.5318604   c0.0501709,0.1337891,0.1105347,0.2773438,0.1678467,0.4178467c0.0759277,0.1862793,0.1530762,0.3735352,0.2415161,0.5715332   c0.0689087,0.1544189,0.145813,0.3164063,0.2223511,0.4777832c0.0960083,0.2027588,0.1952515,0.4083252,0.3031616,0.6223145   c0.0873413,0.1730957,0.180481,0.3515625,0.2756348,0.5322266c0.116272,0.220459,0.237854,0.4459229,0.3657837,0.6774902   c0.1049805,0.1899414,0.2131348,0.3828125,0.3259888,0.5800781c0.1387329,0.2426758,0.2850342,0.4924316,0.4356079,0.7460938   c0.1195679,0.201416,0.2396851,0.4035645,0.3667603,0.6119385c0.057373,0.0941162,0.1069336,0.1810303,0.1658325,0.2767334   L33.340332,52.4580078z M32.25,44.5c0-2.2060547,1.7944336-4,4-4s4,1.7939453,4,4   c0,0.0372314-0.0014648,0.0783691-0.0047607,0.1240234c-0.03302,0.4556885-0.2523193,1.3465576-1.0808716,3.0385742   c-0.4138794,0.8452148-0.9796753,1.8898926-1.7503052,3.1801758c-0.421875,0.6982422-0.8271484,1.3369141-1.1606445,1.8486328   c-0.0947266-0.1464844-0.1953125-0.3037109-0.300293-0.4697266C33.6342773,48.5869141,32.25,45.7001953,32.25,44.5z    M47.1417236,72.5213623l-4.9844971-2.2244873C42.027832,70.2392578,41.8886719,70.2099609,41.75,70.2099609   c-0.1391602,0-0.277832,0.0292969-0.4077148,0.0869141L34.75,73.2392578V64v-9.9509277   c0.0939941,0.1442871,0.1778564,0.2719727,0.255249,0.3890381c0.0165405,0.0250244,0.0314331,0.0476074,0.0471191,0.071167   c0.0669556,0.1010742,0.1286011,0.1937256,0.178894,0.2687988c0.0153809,0.0229492,0.0248413,0.0369873,0.0385132,0.057373   c0.0403442,0.0600586,0.0723267,0.1075439,0.0970459,0.144043C35.3808594,55,35.3848267,55.0059814,35.3936157,55.0189209   c0.019104,0.0281982,0.0316772,0.0465088,0.0316772,0.0465088c0.0881348,0.1286621,0.204834,0.2303467,0.336731,0.3044434   c0.0037231,0.0019531,0.0065918,0.005127,0.0103149,0.0070801c0.1438599,0.0783691,0.3060913,0.1225586,0.4747314,0.1230469   c0.0006104,0,0.0013428-0.0002441,0.0019531-0.0002441C36.2493896,55.4997559,36.2496338,55.5,36.25,55.5   c0.3276367,0,0.6347656-0.1611328,0.8217773-0.4296875c0.0048218-0.006958,0.0234375-0.0340576,0.0532837-0.0776367   c0.0043945-0.0063477,0.0108032-0.0158691,0.0157471-0.0229492c0.0297241-0.043457,0.0665894-0.0976563,0.1143188-0.1679688   c0.0063477-0.0093994,0.0145264-0.0217285,0.0211182-0.0314941c0.0496826-0.0733643,0.1056519-0.1564941,0.1709595-0.2542725   c0.0135498-0.0203857,0.0293579-0.0440674,0.0435181-0.0654297c0.062561-0.0938721,0.1283569-0.1929932,0.2020874-0.3049316   c0.0239868-0.036377,0.0501099-0.0765381,0.0751343-0.114624c0.0690308-0.1052246,0.1392212-0.2127686,0.2156372-0.3306885   c0.0336914-0.052002,0.0690308-0.1072998,0.1040039-0.161499c0.0737915-0.114624,0.1482544-0.2307129,0.2271729-0.3547363   c0.0407715-0.064209,0.0824585-0.1306152,0.1244507-0.1970215c0.0766602-0.12146,0.1536255-0.2438965,0.2337036-0.3725586   c0.0490112-0.0787354,0.0984497-0.1590576,0.1484985-0.2402344c0.0474854-0.0769043,0.0932007-0.1497803,0.1414795-0.2287598   l2.7875977-1.25l4.9111328,2.1972656c0.0004883,0.0002441,0.0009766,0.0001221,0.0014648,0.0002441   c0.0003662,0.0002441,0.0006104,0.0004883,0.0009766,0.0007324l2.6801758,1.1904297   c0.2592773,0.1162109,0.5551758,0.1142578,0.8134766-0.0009766L57.75,50.8945313l7,3.1240234v19.2207031l-6.5922852-2.9423828   c-0.2597656-0.1152344-0.5556641-0.1152344-0.8154297,0l-7.5917969,3.3886719l-2.5922852-1.1591797   C47.1528931,72.5239258,47.1470947,72.5236816,47.1417236,72.5213623z M47.75,80v-5.0170898l1.5917969,0.7104492   c0.2592773,0.1152344,0.5561523,0.1152344,0.8154297,0L53.75,74.0908203V80h-3H47.75z M77.75,88h-26v-2h26V88z M81.75,78v2h-3h-3   V62c0-0.5527344-0.4477539-1-1-1s-1,0.4472656-1,1v19c0,0.5527344,0.4477539,1,1,1h3v2h-26v-2h3c0.5522461,0,1-0.4472656,1-1   v-7.8017578l2-0.8935547l7.5922852,3.3886719c0.1182251,0.0531006,0.2438965,0.0742188,0.369873,0.0788574   c0.0128784,0.0004883,0.0249634,0.0080566,0.0378418,0.0080566c0.0112915,0,0.0221558-0.0043945,0.0333862-0.0048828   c0.0617676-0.0020752,0.1221313-0.0126953,0.1826172-0.0262451c0.0272827-0.0059814,0.0547485-0.0083008,0.0814819-0.0167236   c0.0859375-0.0268555,0.1694336-0.0629883,0.2469482-0.1132813c0.2841797-0.1845703,0.4555664-0.5,0.4555664-0.8388672V53.3701172   c0-0.3945313-0.2319336-0.7519531-0.5922852-0.9130859l-8-3.5703125c-0.2597656-0.1152344-0.5556641-0.1152344-0.8154297,0   l-7.5932617,3.3886719l-1.420166-0.6340332c0.0050659-0.0118408,0.0082397-0.0249023,0.0134277-0.0366211   c0.0383301-0.0874023,0.0862427-0.1688232,0.1278687-0.2542725c0.0881958-0.1810303,0.1781616-0.361084,0.2808838-0.5325928   c0.0603638-0.1008301,0.1286011-0.1955566,0.1937256-0.2928467c0.0983276-0.1469727,0.1983032-0.2928467,0.3071899-0.4313965   c0.0759888-0.0968018,0.1572266-0.1889648,0.2380981-0.2814941c0.1121826-0.1282959,0.227478-0.25354,0.3485718-0.3731689   c0.0883179-0.0871582,0.1791992-0.1716309,0.2720947-0.2540283c0.1275635-0.1131592,0.2598267-0.2205811,0.3954468-0.3242188   c0.0970459-0.0740967,0.1942139-0.1480713,0.2952271-0.217041c0.145813-0.0996094,0.2977295-0.1905518,0.4511719-0.2789307   c0.1008301-0.0582275,0.1998901-0.1192627,0.303894-0.1723633c0.1743774-0.0892334,0.355957-0.1656494,0.5385132-0.2402344   c0.0914307-0.0373535,0.1796265-0.0808105,0.2729492-0.1143799c0.2799072-0.100708,0.5667725-0.1868896,0.8620605-0.2518311   l9.5625-2.1279297c1.2802734-0.2792969,2.6352539-0.2783203,3.9106445-0.0009766l9.5712891,2.1298828   C79.4980469,48.2998047,81.75,51.109375,81.75,54.4199219V78z M87.75,76c0,0.5517578-0.4487305,1-1,1h-3V54.4199219   c0-0.4418945-0.0384521-0.8747559-0.0990601-1.3005371c-0.0073853-0.0518799-0.0117188-0.1044922-0.0200195-0.1561279   c-0.0643921-0.4022217-0.1585693-0.7939453-0.2739868-1.177124c-0.0197754-0.0656738-0.0389404-0.1311035-0.0601807-0.1962891   c-0.1221924-0.3742676-0.2674561-0.7375488-0.43573-1.0888672c-0.0286865-0.0599365-0.0592041-0.1181641-0.0892334-0.1772461   c-0.1791382-0.3535156-0.3768921-0.6956787-0.6001587-1.0205078c-0.0255127-0.0371094-0.0536499-0.0717773-0.0797119-0.1086426   c-0.2363281-0.3330078-0.491394-0.6520996-0.7712402-0.949585c-0.0062256-0.0065918-0.0115967-0.0137939-0.0177612-0.0203857   c-0.281311-0.2972412-0.5880127-0.5703125-0.9093628-0.8273926c-0.0415649-0.0332031-0.0811157-0.0682373-0.1233521-0.1008301   c-0.3120728-0.2404785-0.6432495-0.4580078-0.9882813-0.6571045c-0.0588379-0.0339355-0.1171265-0.067749-0.1768799-0.1004639   c-0.3475342-0.1901855-0.7092285-0.3588867-1.0856323-0.5036621C77.9932251,46.0250244,77.9701538,46.0097656,77.9438477,46H79.75   c4.4111328,0,8,3.5888672,8,8V76z"/><path d="M39.25,44.5c0-1.6542969-1.3457031-3-3-3s-3,1.3457031-3,3s1.3457031,3,3,3S39.25,46.1542969,39.25,44.5z M35.25,44.5   c0-0.5517578,0.4487305-1,1-1s1,0.4482422,1,1s-0.4487305,1-1,1S35.25,45.0517578,35.25,44.5z"/><path d="M50.75,35h2.5c0.5522461,0,1-0.4472656,1-1s-0.4477539-1-1-1h-2.5c-0.5522461,0-1,0.4472656-1,1S50.1977539,35,50.75,35z"/><path d="M42.3310547,35h4.6772461c0.5522461,0,1-0.4472656,1-1s-0.4477539-1-1-1h-4.6772461c-0.5522461,0-1,0.4472656-1,1   S41.7788086,35,42.3310547,35z"/><path d="M33.9116211,35h4.6772461c0.5522461,0,1-0.4472656,1-1s-0.4477539-1-1-1h-4.6772461c-0.5522461,0-1,0.4472656-1,1   S33.359375,35,33.9116211,35z"/><path d="M31.1694336,34c0-0.5527344-0.4477539-1-1-1h-4.6772461c-0.5522461,0-1,0.4472656-1,1s0.4477539,1,1,1h4.6772461   C30.7216797,35,31.1694336,34.5527344,31.1694336,34z"/><path d="M21.75,33h-2.5c-0.5522461,0-1,0.4472656-1,1s0.4477539,1,1,1h2.5c0.5522461,0,1-0.4472656,1-1S22.3022461,33,21.75,33z"/><path d="M27.75,58h-3c-0.5522461,0-1,0.4472656-1,1s0.4477539,1,1,1h3c0.5522461,0,1-0.4472656,1-1S28.3022461,58,27.75,58z"/><path d="M21.75,58h-2.5c-0.5522461,0-1,0.4472656-1,1s0.4477539,1,1,1h2.5c0.5522461,0,1-0.4472656,1-1S22.3022461,58,21.75,58z"/></g><text x="0" y="115" fill="#000000" font-size="5px" font-weight="bold" font-family="'Helvetica Neue', Helvetica, Arial-Unicode, Arial, Sans-serif">Created by Edwin PM</text><text x="0" y="120" fill="#000000" font-size="5px" font-weight="bold" font-family="'Helvetica Neue', Helvetica, Arial-Unicode, Arial, Sans-serif">from the Noun Project</text></svg>