<svg xmlns="http://www.w3.org/2000/svg" xmlns:xlink="http://www.w3.org/1999/xlink" version="1.1" x="0px" y="0px" viewBox="0 0 66 82.5" enable-background="new 0 0 66 66" xml:space="preserve"><g><path d="M2,35.7h25c0.5,0,1-0.4,1-1v-2.4c2.3,0.5,4.1,2.5,4.1,5v16c0,3.5,2.6,6.5,6,6.9V64c0,0.5,0.4,1,1,1h25c0.5,0,1-0.4,1-1   v-5.2c0-1.8-1.2-3.4-2.9-3.9l-6.1-1.9v-2.1c3-2.7,4.9-7.6,4.9-11.2c0-5.2-4.3-9.5-9.5-9.5s-9.5,4.3-9.5,9.5c0,3.6,1.9,8.5,4.9,11.2   v2.2L40.9,55c-1.5,0.5-2.6,1.8-2.8,3.3c-2.4-0.4-4.1-2.5-4.1-5v-16c0-3.5-2.6-6.5-6-6.9v-0.8c0-1.8-1.2-3.4-2.9-3.9L19,23.8v-2.1   c3-2.7,4.9-7.6,4.9-11.2c0-5.2-4.3-9.5-9.5-9.5S5,5.2,5,10.5c0,3.6,1.9,8.5,4.9,11.2v2.2l-6.1,1.9C2.2,26.2,1,27.8,1,29.6v5.2   C1,35.3,1.4,35.7,2,35.7z M51.5,32.2c4.2,0,7.5,3.4,7.5,7.5c0,0.7-0.1,1.4-0.3,2.1c-0.5-1-0.7-2.9-0.7-4.1c0-0.4-0.3-0.8-0.7-0.9   c-0.4-0.1-0.8,0-1.1,0.3c-0.9,1.2-2.5,1.9-4.3,2c-2.1,0.1-4-0.7-5.3-2.1c-0.3-0.3-0.7-0.4-1.1-0.2c-0.4,0.2-0.6,0.6-0.6,1   c0.3,2-0.1,4-0.5,5.3C44.2,42,44,40.8,44,39.8C44,35.6,47.4,32.2,51.5,32.2z M45.6,45.6c0.9-1.2,1.5-3.5,1.6-5.7   c1.5,0.9,3.2,1.3,5,1.3c1.6-0.1,3-0.5,4.2-1.3c0.2,1.4,0.6,3.2,1.6,4.1c0.1,0.1,0.2,0.1,0.3,0.2c-1.3,3.5-3.8,6.8-6.6,6.8   C49.2,50.9,47,48.5,45.6,45.6z M51.5,52.9c0.9,0,1.8-0.2,2.6-0.6v1.5c0,0.7-1.3,1.2-2.6,1.2c-1.2,0-2.6-0.5-2.6-1.2v-1.6   C49.8,52.6,50.6,52.9,51.5,52.9z M40,58.9c0-0.9,0.6-1.8,1.5-2l5.8-1.8c0.3,0.5,0.7,0.9,1.3,1.3c0.8,0.4,1.8,0.7,2.9,0.7   c2,0,3.6-0.7,4.2-1.9l5.8,1.8c0.9,0.3,1.5,1.1,1.5,2v4.2h-2.8v-3.1c0-0.5-0.4-1-1-1s-1,0.4-1,1v3.1H44.7v-3.1c0-0.5-0.4-1-1-1   c-0.5,0-1,0.4-1,1v3.1H40V58.9z M14.5,2.9c4.2,0,7.5,3.4,7.5,7.5c0,0.7-0.1,1.4-0.3,2.1c-0.5-1-0.7-2.9-0.7-4.1   c0-0.4-0.3-0.8-0.7-0.9c-0.4-0.1-0.8,0-1.1,0.3c-0.9,1.2-2.5,1.9-4.3,2c-2,0.1-4-0.7-5.3-2.1C9.4,7.5,9,7.5,8.6,7.6   C8.2,7.8,8,8.2,8.1,8.6c0.3,2-0.1,4-0.5,5.3c-0.4-1.2-0.6-2.4-0.6-3.5C6.9,6.3,10.3,2.9,14.5,2.9z M8.5,16.3   c0.9-1.2,1.5-3.5,1.6-5.7c1.5,0.9,3.2,1.3,5,1.3c1.6-0.1,3-0.5,4.2-1.3c0.2,1.4,0.6,3.2,1.6,4.1c0.1,0.1,0.2,0.1,0.3,0.2   c-1.3,3.5-3.8,6.8-6.6,6.8C12.1,21.6,9.9,19.2,8.5,16.3z M14.5,23.6c0.9,0,1.8-0.2,2.6-0.6v1.5c0,0.7-1.3,1.2-2.6,1.2   s-2.6-0.5-2.6-1.2v-1.6C12.7,23.3,13.6,23.6,14.5,23.6z M2.9,29.6c0-0.9,0.6-1.8,1.5-2l5.8-1.8c0.3,0.5,0.7,0.9,1.3,1.3   c0.8,0.4,1.8,0.7,2.9,0.7c2,0,3.6-0.7,4.2-1.9l5.8,1.8c0.9,0.3,1.5,1.1,1.5,2v4.2h-2.8v-3.1c0-0.5-0.4-1-1-1c-0.5,0-1,0.4-1,1v3.1   H7.7v-3.1c0-0.5-0.4-1-1-1s-1,0.4-1,1v3.1H2.9V29.6z"/><path d="M14.1,56.8c2.7,0,4.9-2.2,4.9-4.9c0-2.7-2.2-4.9-4.9-4.9s-4.9,2.2-4.9,4.9C9.2,54.6,11.4,56.8,14.1,56.8z M14.1,49   c1.6,0,2.9,1.3,2.9,2.9s-1.3,2.9-2.9,2.9c-1.6,0-2.9-1.3-2.9-2.9S12.5,49,14.1,49z"/><path d="M1.7,54.3l2.7,0.8C4.6,55.6,4.8,56,5,56.5l-1.4,2.5c-0.2,0.4-0.1,0.8,0.2,1.2l2.1,2.1c0.3,0.3,0.8,0.4,1.2,0.2L9.5,61   c0.4,0.2,0.9,0.4,1.4,0.6l0.8,2.7c0.1,0.4,0.5,0.7,0.9,0.7h3c0.4,0,0.8-0.3,0.9-0.7l0.8-2.7c0.5-0.2,0.9-0.3,1.4-0.6l2.5,1.4   c0.4,0.2,0.9,0.1,1.2-0.2l2.1-2.1c0.3-0.3,0.4-0.8,0.2-1.2l-1.4-2.5c0.2-0.4,0.4-0.9,0.6-1.4l2.7-0.8c0.4-0.1,0.7-0.5,0.7-0.9v-3   c0-0.4-0.3-0.8-0.7-0.9l-2.7-0.8c-0.2-0.5-0.3-0.9-0.6-1.4l1.4-2.5c0.2-0.4,0.1-0.8-0.2-1.2l-2.1-2.1c-0.3-0.3-0.8-0.4-1.2-0.2   l-2.5,1.4c-0.4-0.2-0.9-0.4-1.4-0.6l-0.8-2.7c-0.1-0.4-0.5-0.7-0.9-0.7h-3c-0.4,0-0.8,0.3-0.9,0.7l-0.8,2.7   c-0.5,0.2-0.9,0.3-1.4,0.6l-2.5-1.4c-0.4-0.2-0.9-0.1-1.2,0.2l-2.1,2.1c-0.3,0.3-0.4,0.8-0.2,1.2L5,47.3c-0.2,0.4-0.4,0.9-0.6,1.4   l-2.7,0.8C1.3,49.6,1,50,1,50.4v3C1,53.8,1.3,54.2,1.7,54.3z M2.9,51.1l2.5-0.7c0.3-0.1,0.6-0.4,0.7-0.7c0.2-0.7,0.4-1.3,0.8-1.9   c0.2-0.3,0.2-0.7,0-1l-1.3-2.3l1.1-1.1l2.3,1.3c0.3,0.2,0.7,0.2,1,0c0.6-0.3,1.2-0.6,1.9-0.8c0.3-0.1,0.6-0.3,0.7-0.7l0.7-2.5h1.5   l0.7,2.5c0.1,0.3,0.4,0.6,0.7,0.7c0.7,0.2,1.3,0.4,1.9,0.8c0.3,0.2,0.7,0.2,1,0l2.3-1.3l1.1,1.1l-1.3,2.3c-0.2,0.3-0.2,0.7,0,1   c0.3,0.6,0.6,1.2,0.8,1.9c0.1,0.3,0.3,0.6,0.7,0.7l2.5,0.7v1.5l-2.5,0.7c-0.3,0.1-0.6,0.4-0.7,0.7c-0.2,0.7-0.4,1.3-0.8,1.9   c-0.2,0.3-0.2,0.7,0,1l1.3,2.3l-1.1,1.1l-2.3-1.3c-0.3-0.2-0.7-0.2-1,0c-0.6,0.3-1.2,0.6-1.9,0.8c-0.3,0.1-0.6,0.3-0.7,0.7   l-0.7,2.5h-1.5l-0.7-2.5c-0.1-0.3-0.4-0.6-0.7-0.7c-0.7-0.2-1.3-0.4-1.9-0.8c-0.3-0.2-0.7-0.2-1,0l-2.3,1.3l-1.1-1.1l1.3-2.3   c0.2-0.3,0.2-0.7,0-1c-0.3-0.6-0.6-1.2-0.8-1.9c-0.1-0.3-0.3-0.6-0.7-0.7l-2.5-0.7V51.1z"/><path d="M51.9,9.2c-2.7,0-4.9,2.2-4.9,4.9c0,2.7,2.2,4.9,4.9,4.9c2.7,0,4.9-2.2,4.9-4.9C56.8,11.4,54.6,9.2,51.9,9.2z M51.9,17   c-1.6,0-2.9-1.3-2.9-2.9s1.3-2.9,2.9-2.9c1.6,0,2.9,1.3,2.9,2.9S53.5,17,51.9,17z"/><path d="M64.3,16.5c0.4-0.1,0.7-0.5,0.7-0.9v-3c0-0.4-0.3-0.8-0.7-0.9l-2.7-0.8c-0.2-0.5-0.3-0.9-0.6-1.4l1.4-2.5   c0.2-0.4,0.1-0.8-0.2-1.2l-2.1-2.1c-0.3-0.3-0.8-0.4-1.2-0.2L56.5,5c-0.4-0.2-0.9-0.4-1.4-0.6l-0.8-2.7C54.2,1.3,53.8,1,53.4,1h-3   c-0.4,0-0.8,0.3-0.9,0.7l-0.8,2.7c-0.5,0.2-0.9,0.3-1.4,0.6l-2.5-1.4c-0.4-0.2-0.9-0.1-1.2,0.2l-2.1,2.1c-0.3,0.3-0.4,0.8-0.2,1.2   l1.4,2.5c-0.2,0.4-0.4,0.9-0.6,1.4l-2.7,0.8c-0.4,0.1-0.7,0.5-0.7,0.9v3c0,0.4,0.3,0.8,0.7,0.9l2.7,0.8c0.2,0.5,0.3,0.9,0.6,1.4   l-1.4,2.5c-0.2,0.4-0.1,0.8,0.2,1.2l2.1,2.1c0.3,0.3,0.8,0.4,1.2,0.2l2.5-1.4c0.4,0.2,0.9,0.4,1.4,0.6l0.8,2.7   c0.1,0.4,0.5,0.7,0.9,0.7h3c0.4,0,0.8-0.3,0.9-0.7l0.8-2.7c0.5-0.2,0.9-0.3,1.4-0.6l2.5,1.4c0.4,0.2,0.9,0.1,1.2-0.2l2.1-2.1   c0.3-0.3,0.4-0.8,0.2-1.2L61,18.7c0.2-0.4,0.4-0.9,0.6-1.4L64.3,16.5z M60.5,15.6c-0.3,0.1-0.6,0.4-0.7,0.7   c-0.2,0.7-0.4,1.3-0.8,1.9c-0.2,0.3-0.2,0.7,0,1l1.3,2.3l-1.1,1.1l-2.3-1.3c-0.3-0.2-0.7-0.2-1,0c-0.6,0.3-1.2,0.6-1.9,0.8   c-0.3,0.1-0.6,0.3-0.7,0.7l-0.7,2.5h-1.5l-0.7-2.5c-0.1-0.3-0.4-0.6-0.7-0.7c-0.7-0.2-1.3-0.4-1.9-0.8c-0.3-0.2-0.7-0.2-1,0   l-2.3,1.3l-1.1-1.1l1.3-2.3c0.2-0.3,0.2-0.7,0-1c-0.3-0.6-0.6-1.2-0.8-1.9c-0.1-0.3-0.3-0.6-0.7-0.7l-2.5-0.7v-1.5l2.5-0.7   c0.3-0.1,0.6-0.4,0.7-0.7c0.2-0.7,0.4-1.3,0.8-1.9c0.2-0.3,0.2-0.7,0-1l-1.3-2.3l1.1-1.1l2.3,1.3c0.3,0.2,0.7,0.2,1,0   c0.6-0.3,1.2-0.6,1.9-0.8c0.3-0.1,0.6-0.3,0.7-0.7l0.7-2.5h1.5l0.7,2.5c0.1,0.3,0.4,0.6,0.7,0.7c0.7,0.2,1.3,0.4,1.9,0.8   c0.3,0.2,0.7,0.2,1,0l2.3-1.3l1.1,1.1l-1.3,2.3c-0.2,0.3-0.2,0.7,0,1c0.3,0.6,0.6,1.2,0.8,1.9c0.1,0.3,0.3,0.6,0.7,0.7l2.5,0.7v1.5   L60.5,15.6z"/></g><text x="0" y="81" fill="#000000" font-size="5px" font-weight="bold" font-family="'Helvetica Neue', Helvetica, Arial-Unicode, Arial, Sans-serif">Created by ProSymbols</text><text x="0" y="86" fill="#000000" font-size="5px" font-weight="bold" font-family="'Helvetica Neue', Helvetica, Arial-Unicode, Arial, Sans-serif">from the Noun Project</text></svg>