<svg xmlns="http://www.w3.org/2000/svg" xmlns:xlink="http://www.w3.org/1999/xlink" version="1.1" x="0px" y="0px" viewBox="0 0 64 80" enable-background="new 0 0 64 64" xml:space="preserve"><g><g><g><path d="M30,14.506c-0.265,0-0.52-0.105-0.707-0.293l-5.857-5.857C22.511,7.434,22,6.204,22,4.895s0.511-2.54,1.437-3.462     C24.354,0.51,25.583,0,26.895,0C28.04,0,29.126,0.389,30,1.105C30.875,0.389,31.961,0,33.106,0c1.312,0,2.541,0.51,3.462,1.436     c0.923,0.92,1.433,2.149,1.433,3.459s-0.51,2.539-1.436,3.462l-0.353,0.347l-5.506,5.51C30.52,14.4,30.266,14.506,30,14.506z      M26.895,2c-0.775,0-1.501,0.3-2.043,0.846C24.302,3.394,24,4.121,24,4.895s0.302,1.5,0.849,2.045L30,12.091l5.158-5.156     c0.541-0.54,0.843-1.267,0.843-2.041s-0.302-1.501-0.848-2.046c-1.093-1.097-3.005-1.095-4.104,0l-0.345,0.342     c-0.391,0.388-1.02,0.388-1.41,0L28.951,2.85C28.401,2.301,27.671,2,26.895,2z"/></g><g><g><path d="M58,13c-0.553,0-1-0.448-1-1c0-0.551-0.448-1-1-1c-0.553,0-1-0.448-1-1s0.447-1,1-1c1.654,0,3,1.346,3,3      C59,12.552,58.553,13,58,13z"/></g><g><path d="M56,20c-0.553,0-1-0.448-1-1s0.447-1,1-1c0.552,0,1-0.449,1-1c0-0.552,0.447-1,1-1s1,0.448,1,1      C59,18.654,57.654,20,56,20z"/></g><g><path d="M58,18c-0.553,0-1-0.448-1-1v-5c0-0.552,0.447-1,1-1s1,0.448,1,1v5C59,17.552,58.553,18,58,18z"/></g><g><path d="M56,11h-2c-0.553,0-1-0.448-1-1s0.447-1,1-1h2c0.553,0,1,0.448,1,1S56.553,11,56,11z"/></g><g><path d="M56,20h-6c-0.553,0-1-0.448-1-1s0.447-1,1-1h6c0.553,0,1,0.448,1,1S56.553,20,56,20z"/></g><g><path d="M54,11c-0.553,0-1-0.448-1-1V6.5c0-0.552,0.447-1,1-1s1,0.448,1,1V10C55,10.552,54.553,11,54,11z"/></g><g><path d="M50.001,11c-0.092,0-0.184-0.013-0.275-0.039c-0.531-0.152-0.839-0.705-0.688-1.236l1-3.5      c0.152-0.532,0.711-0.837,1.236-0.687c0.531,0.152,0.839,0.705,0.688,1.236l-1,3.5C50.836,10.714,50.436,11,50.001,11z"/></g><g><path d="M51,7.5c-0.091,0-0.184-0.013-0.275-0.039c-0.531-0.152-0.838-0.706-0.686-1.237C50.213,5.616,50.677,4,52.5,4      C53.879,4,55,5.122,55,6.5c0,0.552-0.447,1-1,1s-1-0.448-1-1C53,6.224,52.775,6,52.5,6c-0.184,0-0.316,0-0.539,0.776      C51.835,7.214,51.436,7.5,51,7.5z"/></g><g><path d="M50,20c-0.256,0-0.512-0.098-0.707-0.293l-1-1c-0.391-0.391-0.391-1.023,0-1.414s1.023-0.391,1.414,0l1,1      c0.391,0.391,0.391,1.023,0,1.414C50.512,19.902,50.256,20,50,20z"/></g><g><path d="M50,11h-3c-0.553,0-1-0.448-1-1s0.447-1,1-1h3c0.553,0,1,0.448,1,1S50.553,11,50,11z"/></g><g><path d="M49,19h-2c-0.553,0-1-0.448-1-1s0.447-1,1-1h2c0.553,0,1,0.448,1,1S49.553,19,49,19z"/></g><g><path d="M47,20h-4c-0.553,0-1-0.448-1-1V9c0-0.552,0.447-1,1-1h4c0.553,0,1,0.448,1,1v10C48,19.552,47.553,20,47,20z M44,18h2      v-8h-2V18z"/></g></g><g><g><path d="M12,21c-3.859,0-7-3.14-7-7s3.141-7,7-7s7,3.14,7,7S15.859,21,12,21z M12,9c-2.757,0-5,2.243-5,5s2.243,5,5,5      s5-2.243,5-5S14.757,9,12,9z"/></g><g><path d="M12,17c-0.553,0-1-0.448-1-1v-4c0-0.552,0.447-1,1-1s1,0.448,1,1v4C13,16.552,12.553,17,12,17z"/></g><g><path d="M14,15h-4c-0.553,0-1-0.448-1-1s0.447-1,1-1h4c0.553,0,1,0.448,1,1S14.553,15,14,15z"/></g></g><g><g><path d="M44,64H10c-0.553,0-1-0.447-1-1V27c0-0.552,0.447-1,1-1h34c0.553,0,1,0.448,1,1v36C45,63.553,44.553,64,44,64z M11,62      h32V28H11V62z"/></g><g><path d="M50,64h-6c-0.553,0-1-0.447-1-1V27c0-0.552,0.447-1,1-1h6c0.553,0,1,0.448,1,1v36C51,63.553,50.553,64,50,64z M45,62h4      V28h-4V62z"/></g><g><g><path d="M32,25c-0.553,0-1-0.448-1-1c0-2.206-1.794-4-4-4s-4,1.794-4,4c0,0.552-0.447,1-1,1s-1-0.448-1-1c0-3.309,2.691-6,6-6       s6,2.691,6,6C33,24.552,32.553,25,32,25z"/></g><g><path d="M22,32c-0.553,0-1-0.448-1-1v-7c0-0.552,0.447-1,1-1s1,0.448,1,1v7C23,31.552,22.553,32,22,32z"/></g><g><path d="M32,32c-0.553,0-1-0.448-1-1v-7c0-0.552,0.447-1,1-1s1,0.448,1,1v7C33,31.552,32.553,32,32,32z"/></g></g><g><g><path d="M38,25c-0.553,0-1-0.448-1-1c0-2.206-1.794-4-4-4s-4,1.794-4,4c0,0.552-0.447,1-1,1s-1-0.448-1-1c0-3.309,2.691-6,6-6       s6,2.691,6,6C39,24.552,38.553,25,38,25z"/></g><g><path d="M28,28c-0.553,0-1-0.448-1-1v-3c0-0.552,0.447-1,1-1s1,0.448,1,1v3C29,27.552,28.553,28,28,28z"/></g><g><path d="M38,28c-0.553,0-1-0.448-1-1v-3c0-0.552,0.447-1,1-1s1,0.448,1,1v3C39,27.552,38.553,28,38,28z"/></g></g></g></g></g><text x="0" y="79" fill="#000000" font-size="5px" font-weight="bold" font-family="'Helvetica Neue', Helvetica, Arial-Unicode, Arial, Sans-serif">Created by lastspark</text><text x="0" y="84" fill="#000000" font-size="5px" font-weight="bold" font-family="'Helvetica Neue', Helvetica, Arial-Unicode, Arial, Sans-serif">from the Noun Project</text></svg>