<svg xmlns="http://www.w3.org/2000/svg" xmlns:xlink="http://www.w3.org/1999/xlink" version="1.1" x="0px" y="0px" viewBox="0 0 32 40" enable-background="new 0 0 32 32" xml:space="preserve"><path d="M25.6801758,11.90625l-0.9833984-5.9365234c-0.1650391-0.9941406-0.9418945-1.7753906-1.9331055-1.9414063  l-5.8994141-0.9892578c-0.9174805-0.1542969-1.8286133,0.1474609-2.4750977,0.796875L2.730957,15.5654297  c-0.387207,0.390625-0.387207,1.0195313,0,1.4101563l9.0825195,9.1376953  c0.1879883,0.1884766,0.4433594,0.2949219,0.7094727,0.2949219s0.5214844-0.1064453,0.7094727-0.2949219L24.890625,14.3837891  C25.5341797,13.7353516,25.8295898,12.8095703,25.6801758,11.90625z M12.5229492,23.9892578l-7.6723633-7.71875l1.2128906-1.2203369  l7.6722412,7.7188721L12.5229492,23.9892578z M23.4716797,12.9736328l-9.0310669,9.0862427l-7.6723022-7.7189331  l9.0393066-9.0948486c0.1904297-0.1914063,0.4541016-0.28125,0.7246094-0.234375l5.9003906,0.9892578  c0.1489258,0.0244141,0.2661133,0.1435547,0.2915039,0.2958984l0.9829102,5.9355469  C23.7519531,12.5029297,23.6640625,12.7802734,23.4716797,12.9736328z"/><path d="M19.2568359,11.6845703c-0.6245117,0-1.2109375-0.2441406-1.6518555-0.6875  c-0.9086914-0.9150391-0.9086914-2.4023438,0-3.3164063c0.8813477-0.8857422,2.4204102-0.8876953,3.3037109,0  c0.9086914,0.9140625,0.9086914,2.4013672,0.0004883,3.3164063C20.4672852,11.4404297,19.8808594,11.6845703,19.2568359,11.6845703z   M19.2568359,7.9931641c-0.355957,0-0.690918,0.1386719-0.9428711,0.3925781  c-0.5224609,0.5253906-0.5219727,1.3808594,0.0004883,1.90625c0.5029297,0.5078125,1.3813477,0.5078125,1.8852539,0  c0.5219727-0.5253906,0.5224609-1.3808594,0-1.90625C19.9477539,8.1318359,19.612793,7.9931641,19.2568359,7.9931641z"/><path d="M28.8056641,9.4472656l-1.3793945-1.4970703c-0.3754883-0.4072266-1.0073242-0.4316406-1.4130859-0.0576172  c-0.40625,0.3740234-0.4321289,1.0068359-0.0576172,1.4130859l1.3789063,1.4970703  c0.1850586,0.2001953,0.2626953,0.4804688,0.2080078,0.75l-2.5783691,12.5906372l-6.5852051-1.3650513  c-0.2714844-0.0654297-0.5351563,0.1162109-0.5913086,0.3876953c-0.0556641,0.2705078,0.1176758,0.5351563,0.3881836,0.5908203  l6.5878296,1.3656006l-0.3471069,1.6949463l-7.9013672-1.6376953c-0.5444336-0.109375-1.0708008,0.2363281-1.1821289,0.7763672  c-0.1123047,0.5410156,0.2353516,1.0703125,0.7758789,1.1826172l8.8833008,1.8408203  C25.0595703,28.9931641,25.1274414,29,25.1953125,29c0.1938477,0,0.3852539-0.0566406,0.5498047-0.1650391  c0.222168-0.1455078,0.3764648-0.3740234,0.4296875-0.6347656l3.3266602-16.2470703  C29.6850586,11.0566406,29.425293,10.1201172,28.8056641,9.4472656z"/><text x="0" y="47" fill="#000000" font-size="5px" font-weight="bold" font-family="'Helvetica Neue', Helvetica, Arial-Unicode, Arial, Sans-serif">Created by Frey Wazza</text><text x="0" y="52" fill="#000000" font-size="5px" font-weight="bold" font-family="'Helvetica Neue', Helvetica, Arial-Unicode, Arial, Sans-serif">from the Noun Project</text></svg>