<svg xmlns="http://www.w3.org/2000/svg" xmlns:xlink="http://www.w3.org/1999/xlink" version="1.0" x="0px" y="0px" viewBox="0 0 100 125" enable-background="new 0 0 100 100" xml:space="preserve"><g><path d="M73.027,39.486l11.968,19.947c0.193,0.322,0.19,0.726-0.009,1.044L73.077,79.53C72.894,79.822,72.574,80,72.229,80H9   c-0.552,0-1-0.448-1-1V40c0-0.552,0.448-1,1-1h63.169C72.52,39,72.846,39.184,73.027,39.486z M72.735,35H8c-2.209,0-4,1.791-4,4v41   c0,2.209,1.791,4,4,4h64.783c1.379,0,2.661-0.71,3.392-1.88l12.527-20.043c0.797-1.275,0.811-2.889,0.038-4.178L76.165,36.942   C75.442,35.737,74.14,35,72.735,35L72.735,35z"/></g><g><path d="M72.5,56.5c1.93,0,3.5,1.57,3.5,3.5s-1.57,3.5-3.5,3.5S69,61.93,69,60S70.57,56.5,72.5,56.5 M72.5,52.5   c-4.142,0-7.5,3.358-7.5,7.5s3.358,7.5,7.5,7.5S80,64.142,80,60S76.642,52.5,72.5,52.5L72.5,52.5z"/></g><g><path d="M85.5,72.5c-0.41,0-0.807-0.024-1.204-0.062c-3.479-0.327-6.686-2.131-8.797-4.95C73.865,65.322,73,62.731,73,60   c0-1.248,0.184-2.48,0.546-3.663c0.324-1.055,1.444-1.647,2.498-1.326c1.056,0.323,1.649,1.441,1.326,2.498   C77.125,58.311,77,59.149,77,60c0,1.855,0.587,3.613,1.696,5.085c1.44,1.923,3.616,3.149,5.973,3.371   c0.272,0.025,0.548,0.044,0.831,0.044c4.687,0,8.5-3.813,8.5-8.5s-3.813-8.5-8.5-8.5c-0.282,0-0.557,0.018-0.83,0.044   c-1.115,0.1-2.076-0.704-2.18-1.803s0.703-2.075,1.803-2.179c0.398-0.038,0.796-0.062,1.207-0.062C92.393,47.5,98,53.107,98,60   S92.393,72.5,85.5,72.5z"/></g><g><path d="M84.998,57c-0.945,0-1.786-0.673-1.965-1.636l-4.507-24.337c-0.149-0.809-0.768-1.436-1.574-1.598L23.302,18.7   c-1.037-0.205-2.058,0.431-2.327,1.453l-4.04,15.356c-0.281,1.068-1.371,1.708-2.443,1.425c-1.068-0.281-1.706-1.375-1.426-2.443   l4.041-15.357c0.808-3.064,3.875-4.98,6.98-4.356l53.65,10.73c2.419,0.484,4.273,2.365,4.723,4.791l4.507,24.337   c0.201,1.086-0.517,2.13-1.603,2.331C85.241,56.989,85.118,57,84.998,57z"/></g><g><path d="M88,86c-0.512,0-1.023-0.195-1.414-0.586c-0.781-0.781-0.781-2.047,0-2.828c6.9-6.901,3.659-13.624,3.625-13.691   c-0.494-0.988-0.094-2.189,0.895-2.684c0.991-0.496,2.189-0.093,2.684,0.895c0.189,0.379,4.542,9.391-4.375,18.309   C89.023,85.805,88.512,86,88,86z"/></g><g><path d="M25,57c-3.859,0-7-3.141-7-7c0-3.86,3.141-7,7-7s7,3.14,7,7C32,53.859,28.859,57,25,57z M25,47c-1.654,0-3,1.346-3,3   s1.346,3,3,3s3-1.346,3-3S26.654,47,25,47z"/></g><g><path d="M40,77c-3.859,0-7-3.141-7-7s3.141-7,7-7s7,3.141,7,7S43.859,77,40,77z M40,67c-1.654,0-3,1.346-3,3s1.346,3,3,3   s3-1.346,3-3S41.654,67,40,67z"/></g><g><path d="M19.999,77c-0.451,0-0.905-0.152-1.279-0.464c-0.849-0.707-0.963-1.968-0.256-2.816l25-30   c0.707-0.849,1.967-0.964,2.816-0.256c0.849,0.708,0.963,1.968,0.256,2.817l-25,30C21.141,76.755,20.572,77,19.999,77z"/></g><text x="0" y="115" fill="#000000" font-size="5px" font-weight="bold" font-family="'Helvetica Neue', Helvetica, Arial-Unicode, Arial, Sans-serif">Created by Nugraha Wira Menggala</text><text x="0" y="120" fill="#000000" font-size="5px" font-weight="bold" font-family="'Helvetica Neue', Helvetica, Arial-Unicode, Arial, Sans-serif">from the Noun Project</text></svg>