<svg xmlns="http://www.w3.org/2000/svg" data-name="Layer 2" viewBox="0 0 64 80" x="0px" y="0px"><title>tag</title><path d="M40.33,24.75v-5.5A6.26,6.26,0,0,0,34.08,13H16.42a6.26,6.26,0,0,0-6.25,6.25v5.5A6.26,6.26,0,0,0,16.42,31H34.08A6.26,6.26,0,0,0,40.33,24.75Zm-28.17,0v-5.5A4.26,4.26,0,0,1,16.42,15H34.08a4.25,4.25,0,0,1,4.25,4.25v5.5A4.25,4.25,0,0,1,34.08,29H16.42A4.26,4.26,0,0,1,12.17,24.75Z"/><path d="M36.29,26a1,1,0,0,0-1-1H19.21a1,1,0,0,0,0,2H35.29A1,1,0,0,0,36.29,26Z"/><path d="M19.21,23H35.29a1,1,0,0,0,0-2H19.21a1,1,0,0,0,0,2Z"/><path d="M19.21,19H35.29a1,1,0,0,0,0-2H19.21a1,1,0,0,0,0,2Z"/><circle cx="14.93" cy="22" r="1"/><path d="M47.58,33H29.92a6.26,6.26,0,0,0-6.25,6.25v5.5A6.26,6.26,0,0,0,29.92,51H47.58a6.26,6.26,0,0,0,6.25-6.25v-5.5A6.26,6.26,0,0,0,47.58,33Zm4.25,11.75A4.25,4.25,0,0,1,47.58,49H29.92a4.26,4.26,0,0,1-4.25-4.25v-5.5A4.26,4.26,0,0,1,29.92,35H47.58a4.25,4.25,0,0,1,4.25,4.25Z"/><path d="M48.79,45H32.71a1,1,0,1,0,0,2H48.79a1,1,0,1,0,0-2Z"/><path d="M48.79,41H32.71a1,1,0,1,0,0,2H48.79a1,1,0,1,0,0-2Z"/><path d="M48.79,37H32.71a1,1,0,1,0,0,2H48.79a1,1,0,1,0,0-2Z"/><circle cx="28.43" cy="42" r="1"/><text x="0" y="79" fill="#000000" font-size="5px" font-weight="bold" font-family="'Helvetica Neue', Helvetica, Arial-Unicode, Arial, Sans-serif">Created by Hada Arkanda</text><text x="0" y="84" fill="#000000" font-size="5px" font-weight="bold" font-family="'Helvetica Neue', Helvetica, Arial-Unicode, Arial, Sans-serif">from the Noun Project</text></svg>